# xmcd
#
# Track frame offsets: 
#        150
#        8204
#        10409
#        19154
#        19467
#        21161
#        29907
#        30789
#        40606
#        42719
#        55004
#        57838
#        68721
#        69035
#        81689
#        83480
#        83876
#        97423
#        99642
#        102372
#        113373
#        115409
#        125425
#        125740
#        126816
#        135755
#        138804
#        149633
#
# Disc length: 2009 seconds
#
# Revision: 0
# Processed by: cddbd v1.5.2PL0 Copyright (c) Steve Scherf et al.
# Submitted via: ExactAudioCopy v0.95b3
#
DISCID=7f07d71c
DTITLE=The Beatles  - Way Beyond Compare - Episode 19 Pop Goes The Bea
DTITLE=tles 2 and 4 (1 June-17 June 1963)  FLAC
DYEAR=1900
DGENRE=
TTITLE0=01 Too Much Monkey Business
TTITLE1=01A 'Love These Goon Shows'
TTITLE2=02 I Got To Find My Baby
TTITLE3=02A 'The Beatles Can Take A Rest'
TTITLE4=02B 'Happy Birthday To You Ringo'
TTITLE5=03 Youngblood
TTITLE6=03A 'Now Paul Has A Go'
TTITLE7=04 Till There Was You
TTITLE8=04A 'Sha La La La'
TTITLE9=05 Baby, It's You
TTITLE10=05A 'Dark Days Of 1962'
TTITLE11=06 Love Me Do
TTITLE12=00 Intro
TTITLE13=01 I Saw Her Standing There
TTITLE14=01A 'You Feel Like A Man Now'
TTITLE15=01B 'John Let's His Guitar Take Second Place'
TTITLE16=02 Anna (Go To Him)
TTITLE17=02A 'I'm Very Glad You Sang That'
TTITLE18=02B 'Oh, Very Fit'
TTITLE19=03 Boys
TTITLE20=03A 'He Can Sing, Can Ringo'
TTITLE21=04 Chains
TTITLE22=04A 'Thank You Gorgeous George'
TTITLE23=04B 'Who Sings This Next Song'
TTITLE24=05 P.S. I Love You
TTITLE25=05A 'No Relation To John'
TTITLE26=06 Twist And Shout
TTITLE27=06A 'We'll All Be At It Again Soon'
EXTD=
EXTT0=
EXTT1=
EXTT2=
EXTT3=
EXTT4=
EXTT5=
EXTT6=
EXTT7=
EXTT8=
EXTT9=
EXTT10=
EXTT11=
EXTT12=
EXTT13=
EXTT14=
EXTT15=
EXTT16=
EXTT17=
EXTT18=
EXTT19=
EXTT20=
EXTT21=
EXTT22=
EXTT23=
EXTT24=
EXTT25=
EXTT26=
EXTT27=
PLAYORDER=
